grf
version=1
nRows=19
nColumns=37
inDegrees=no
endheader
time	ground_force_1_vx	ground_force_1_vy	ground_force_1_vz	ground_force_1_px	ground_force_1_py	ground_force_1_pz	ground_moment_1_mx	ground_moment_1_my	ground_moment_1_mz	ground_force_2_vx	ground_force_2_vy	ground_force_2_vz	ground_force_2_px	ground_force_2_py	ground_force_2_pz	ground_moment_2_mx	ground_moment_2_my	ground_moment_2_mz	ground_force_3_vx	ground_force_3_vy	ground_force_3_vz	ground_force_3_px	ground_force_3_py	ground_force_3_pz	ground_moment_3_mx	ground_moment_3_my	ground_moment_3_mz	ground_force_4_vx	ground_force_4_vy	ground_force_4_vz	ground_force_4_px	ground_force_4_py	ground_force_4_pz	ground_moment_4_mx	ground_moment_4_my	ground_moment_4_mz
      3.78000000	      0.00000000	     -0.00000000	      0.00000000	      0.00000000	      0.00000000	      0.00000000	      0.00000000	      0.00000000	      0.00000000	      2.82733011	     -5.15882635	   -331.19345093	   -335.46790629	  -1084.64320836	      0.00000000	      0.00000000	      0.00000000	   5488.69809322	     -0.51575225	     -1.99851842	   -380.57525635	   -341.77028788	   -676.89960046	      0.00000000	      0.00000000	      0.00000000	  -6035.35803025	      0.00000000	     -0.00000000	      0.00000000	      0.00000000	      0.00000000	      0.00000000	      0.00000000	      0.00000000	      0.00000000
      3.79000000	      0.00000000	     -0.00000000	      0.00000000	      0.00000000	      0.00000000	      0.00000000	      0.00000000	      0.00000000	      0.00000000	      2.34740734	     -5.27541351	   -333.07058716	   -336.03331007	  -1086.17651374	      0.00000000	      0.00000000	      0.00000000	   5333.77038720	     -0.21636982	     -2.15849755	   -378.96011353	   -342.39453976	   -678.45290195	      0.00000000	      0.00000000	     -0.00000000	  -6064.58015073	      0.00000000	     -0.00000000	      0.00000000	      0.00000000	      0.00000000	      0.00000000	      0.00000000	      0.00000000	      0.00000000
      3.80000000	      0.00000000	     -0.00000000	      0.00000000	      0.00000000	      0.00000000	      0.00000000	      0.00000000	      0.00000000	      0.00000000	      1.95739520	     -4.82350445	   -332.64978027	   -335.20954457	  -1086.53468740	      0.00000000	      0.00000000	     -0.00000000	   5420.43325314	      0.17194672	     -1.49601795	   -378.98208618	   -341.61586331	   -676.81820808	      0.00000000	      0.00000000	     -0.00000000	  -6076.95257359	      0.00000000	     -0.00000000	      0.00000000	      0.00000000	      0.00000000	      0.00000000	      0.00000000	      0.00000000	      0.00000000
      3.81000000	      0.00000000	     -0.00000000	      0.00000000	      0.00000000	      0.00000000	      0.00000000	      0.00000000	      0.00000000	      0.00000000	      0.90896612	     -4.33369780	   -329.58364868	   -335.30722957	  -1085.23298975	      0.00000000	      0.00000000	      0.00000000	   5335.62875249	      0.41012790	     -1.14818195	   -378.76373291	   -342.39154438	   -677.18121861	      0.00000000	      0.00000000	      0.00000000	  -6182.13318266	      0.00000000	     -0.00000000	      0.00000000	      0.00000000	      0.00000000	      0.00000000	      0.00000000	      0.00000000	      0.00000000
      3.82000000	      0.00000000	     -0.00000000	      0.00000000	      0.00000000	      0.00000000	      0.00000000	      0.00000000	      0.00000000	      0.00000000	      0.94744706	     -3.99394894	   -329.78506470	   -335.44199977	  -1084.99727291	      0.00000000	      0.00000000	      0.00000000	   5529.26146876	      0.84875443	     -0.38671117	   -377.93301392	   -343.16094755	   -678.09192145	      0.00000000	      0.00000000	     -0.00000000	  -6023.93133387	      0.00000000	     -0.00000000	      0.00000000	      0.00000000	      0.00000000	      0.00000000	      0.00000000	      0.00000000	      0.00000000
      3.83000000	      0.00000000	     -0.00000000	      0.00000000	      0.00000000	      0.00000000	      0.00000000	      0.00000000	      0.00000000	      0.00000000	      1.07474685	     -3.79442501	   -332.77954102	   -335.94349793	  -1086.29125023	      0.00000000	      0.00000000	      0.00000000	   5601.78137344	      1.34751093	     -0.00000012	   -376.58438110	   -343.07251454	   -678.45697013	      0.00000000	      0.00000000	     -0.00000000	  -5995.25793822	      0.00000000	     -0.00000000	      0.00000000	      0.00000000	      0.00000000	      0.00000000	      0.00000000	      0.00000000	      0.00000000
      3.84000000	      0.00000000	     -0.00000000	      0.00000000	      0.00000000	      0.00000000	      0.00000000	      0.00000000	      0.00000000	      0.00000000	      0.71368408	     -3.67140460	   -332.34234619	   -335.83590302	  -1086.06794535	      0.00000000	      0.00000000	      0.00000000	   5569.80705433	      1.50808335	      0.02092199	   -376.45205688	   -343.07179942	   -678.60984672	      0.00000000	      0.00000000	     -0.00000000	  -6026.96067564	      0.00000000	     -0.00000000	      0.00000000	      0.00000000	      0.00000000	      0.00000000	      0.00000000	      0.00000000	      0.00000000
      3.85000000	      0.00000000	     -0.00000000	      0.00000000	      0.00000000	      0.00000000	      0.00000000	      0.00000000	      0.00000000	      0.00000000	     -0.00352550	     -3.99022412	   -331.43243408	   -336.27468878	  -1085.82967315	      0.00000000	      0.00000000	      0.00000000	   5577.96358309	      1.79120316	      0.24429481	   -376.03631592	   -343.75599583	   -679.18790414	      0.00000000	      0.00000000	     -0.00000000	  -5838.37716941	      0.00000000	     -0.00000000	      0.00000000	      0.00000000	      0.00000000	      0.00000000	      0.00000000	      0.00000000	      0.00000000
      3.86000000	      0.00000000	     -0.00000000	      0.00000000	      0.00000000	      0.00000000	      0.00000000	      0.00000000	      0.00000000	      0.00000000	      0.21602967	     -4.56283569	   -333.19757080	   -334.94541838	  -1085.52830636	      0.00000000	      0.00000000	      0.00000000	   5448.98110404	      2.75003441	      0.91716838	   -376.66751099	   -343.85048349	   -679.30600871	      0.00000000	      0.00000000	     -0.00000000	  -5826.16824755	      0.00000000	     -0.00000000	      0.00000000	      0.00000000	      0.00000000	      0.00000000	      0.00000000	      0.00000000	      0.00000000
      3.87000000	      0.00000000	     -0.00000000	      0.00000000	      0.00000000	      0.00000000	      0.00000000	      0.00000000	      0.00000000	      0.00000000	      0.62447357	     -4.79860926	   -330.50802612	   -335.51996877	  -1084.73582982	      0.00000000	      0.00000000	     -0.00000000	   5347.71032239	      3.47992880	      0.72362369	   -376.03631592	   -343.31797186	   -678.23295984	      0.00000000	      0.00000000	     -0.00000000	  -5718.82017907	      0.00000000	     -0.00000000	      0.00000000	      0.00000000	      0.00000000	      0.00000000	      0.00000000	      0.00000000	      0.00000000
      3.88000000	      0.00000000	     -0.00000000	      0.00000000	      0.00000000	      0.00000000	      0.00000000	      0.00000000	      0.00000000	      0.00000000	      0.58979422	     -4.65210485	   -331.69467163	   -334.43950527	  -1086.34981959	      0.00000000	      0.00000000	      0.00000000	   5407.31436295	      2.62417960	      0.01986725	   -374.15521240	   -344.04011746	   -678.46229346	      0.00000000	      0.00000000	     -0.00000000	  -5628.17066585	      0.00000000	     -0.00000000	      0.00000000	      0.00000000	      0.00000000	      0.00000000	      0.00000000	      0.00000000	      0.00000000
      3.89000000	      0.00000000	     -0.00000000	      0.00000000	      0.00000000	      0.00000000	      0.00000000	      0.00000000	      0.00000000	      0.00000000	     -0.48305476	     -5.30005217	   -331.91156006	   -334.46245531	  -1087.52836546	      0.00000000	      0.00000000	      0.00000000	   5147.63895095	      2.82149337	     -0.17420194	   -374.44561768	   -343.95092721	   -678.38275146	      0.00000000	      0.00000000	     -0.00000000	  -5705.31849475	      0.00000000	     -0.00000000	      0.00000000	      0.00000000	      0.00000000	      0.00000000	      0.00000000	      0.00000000	      0.00000000
      3.90000000	      0.00000000	     -0.00000000	      0.00000000	      0.00000000	      0.00000000	      0.00000000	      0.00000000	      0.00000000	      0.00000000	      0.35684204	     -4.74137068	   -330.15408325	   -334.46593253	  -1087.86616236	      0.00000000	      0.00000000	      0.00000000	   5359.13868034	      3.17417220	      0.47610356	   -373.17492676	   -344.10955964	   -678.91938605	      0.00000000	      0.00000000	     -0.00000000	  -5704.18791576	      0.00000000	     -0.00000000	      0.00000000	      0.00000000	      0.00000000	      0.00000000	      0.00000000	      0.00000000	      0.00000000
      3.91000000	      0.00000000	     -0.00000000	      0.00000000	      0.00000000	      0.00000000	      0.00000000	      0.00000000	      0.00000000	      0.00000000	      0.48264664	     -4.50908947	   -330.22326660	   -334.50581826	  -1086.93918946	      0.00000000	      0.00000000	      0.00000000	   5366.26156258	      3.26313621	      0.68926252	   -373.03781128	   -343.82802470	   -679.25649823	      0.00000000	      0.00000000	     -0.00000000	  -5597.73479842	      0.00000000	     -0.00000000	      0.00000000	      0.00000000	      0.00000000	      0.00000000	      0.00000000	      0.00000000	      0.00000000
      3.92000000	      0.00000000	     -0.00000000	      0.00000000	      0.00000000	      0.00000000	      0.00000000	      0.00000000	      0.00000000	      0.00000000	     -0.25001734	     -4.54451180	   -331.85421753	   -334.31657339	  -1086.73691193	      0.00000000	      0.00000000	      0.00000000	   5464.90432965	      3.21105037	      1.09463068	   -373.03692627	   -344.15072101	   -678.80542796	      0.00000000	      0.00000000	     -0.00000000	  -5625.56305515	      0.00000000	     -0.00000000	      0.00000000	      0.00000000	      0.00000000	      0.00000000	      0.00000000	      0.00000000	      0.00000000
      3.93000000	      0.00000000	     -0.00000000	      0.00000000	      0.00000000	      0.00000000	      0.00000000	      0.00000000	      0.00000000	      0.00000000	     -0.69600618	     -4.81304169	   -331.63598633	   -334.63324060	  -1086.44814894	      0.00000000	      0.00000000	      0.00000000	   5435.27279627	      3.54843148	      1.00643496	   -371.84219360	   -344.30683846	   -679.87626295	      0.00000000	      0.00000000	     -0.00000000	  -5639.45440898	      0.00000000	     -0.00000000	      0.00000000	      0.00000000	      0.00000000	      0.00000000	      0.00000000	      0.00000000	      0.00000000
      3.94000000	      0.00000000	     -0.00000000	      0.00000000	      0.00000000	      0.00000000	      0.00000000	      0.00000000	      0.00000000	      0.00000000	     -0.87436336	     -4.43929577	   -332.69549561	   -334.37381577	  -1086.09156296	      0.00000000	      0.00000000	      0.00000000	   5431.79190515	      3.35265412	      1.57227844	   -372.33712769	   -344.27487903	   -679.12903983	      0.00000000	      0.00000000	     -0.00000000	  -5590.61704342	      0.00000000	     -0.00000000	      0.00000000	      0.00000000	      0.00000000	      0.00000000	      0.00000000	      0.00000000	      0.00000000
      3.95000000	      0.00000000	     -0.00000000	      0.00000000	      0.00000000	      0.00000000	      0.00000000	      0.00000000	      0.00000000	      0.00000000	     -1.44518530	     -3.60094309	   -335.80358887	   -334.49924625	  -1086.98850414	      0.00000000	      0.00000000	      0.00000000	   5421.82083525	      3.51310408	      1.39595073	   -369.60946655	   -344.79969728	   -680.44874475	      0.00000000	      0.00000000	     -0.00000000	  -5496.22120173	      0.00000000	     -0.00000000	      0.00000000	      0.00000000	      0.00000000	      0.00000000	      0.00000000	      0.00000000	      0.00000000
      3.96000000	      0.00000000	     -0.00000000	      0.00000000	      0.00000000	      0.00000000	      0.00000000	      0.00000000	      0.00000000	      0.00000000	     -2.12317514	     -3.08384228	   -337.42770386	   -333.33094193	  -1087.36880513	      0.00000000	      0.00000000	      0.00000000	   5376.79432647	      3.38873324	      0.98918373	   -369.89144897	   -345.00452954	   -680.01338137	      0.00000000	      0.00000000	     -0.00000000	  -5632.79952301	      0.00000000	     -0.00000000	      0.00000000	      0.00000000	      0.00000000	      0.00000000	      0.00000000	      0.00000000	      0.00000000
